<svg version="1.1" xmlns="http://www.w3.org/2000/svg" viewBox="-2358.625775505876 -1039.7 5401.825775505876 2435.6"><desc>Created with Snap</desc><defs></defs><g><g transform="matrix(20.2581,0,0,20.2581,-2152.7161,-833.7903)"><g><path d="M78.4,66.5c-5.5,4.8-9.9,15.2-9.9,15.2s-6.9-11.4-12.9-15.3c-9.5-6.1-13.6-6.2-13.6-6.2V65c0,0,7.8,1.2,11.7,4.6   c8.2,7.1,14.8,18.5,14.8,18.5S74.4,75,80.1,70.5C88.1,64.3,95,65,95,65v-4.8C95,60.1,85.1,60.7,78.4,66.5z" fill="#5ca4a9" style=""></path><path d="M42,80c-6.4-3.6-17.8-4.3-17.8-4.3s8.7-10.1,10.5-17C37.5,47.9,36.2,44,36.2,44l-4.6,1.6c0,0,1.3,7.7-0.6,12.4   c-4.1,9.9-13,19.8-13,19.8s14.6,1.3,20.7,5.1c8.6,5.4,10.2,12,10.2,12l4.6-1.6C53.5,93.4,49.7,84.4,42,80z" fill="#5ca4a9" style=""></path><path d="M35.3,36.8c11.3-0.9,14.6-3.4,14.6-3.4l-3-3.8c0,0-6.9,3.7-12.1,3.4c-10.9-0.6-23.3-5.6-23.3-5.6s3.5,14,1.8,20.9   C10.9,58.2,5,61.8,5,61.8l3,3.8c0,0,7.5-6.5,9.1-15.1c1.3-7.1-1.7-18-1.7-18S28,37.4,35.3,36.8z" fill="#5ca4a9" style=""></path><path d="M37.4,17.8c7.3-1.1,16.7-7.4,16.7-7.4s-0.6,13.2,2.4,19.8c4.6,10.2,8,12.5,8,12.5l2.7-4c0,0-5.9-5.2-7.3-10.2   C56.9,18.2,57.7,5,57.7,5s-12.3,7.8-19.5,8.5c-10.2,1-15.6-3.3-15.6-3.3l-2.7,4.1C19.9,14.2,28.6,19.1,37.4,17.8z" fill="#5ca4a9" style=""></path><path d="M65,60.5c0,0,3.1-7.2,7.4-10.1c9-6.1,21.9-9.7,21.9-9.7s-11.5-8.9-14.5-15.4c-4.2-9.1-1.9-15.6-1.9-15.6l-4.8-1.2   c0,0-1.9,9.6,2.2,17.4c3.4,6.4,12.5,13.2,12.5,13.2S75,42.9,69.6,47.8c-8.3,7.6-9.4,11.5-9.4,11.5L65,60.5z" fill="#5ca4a9" style=""></path></g><desc>Created with Snap</desc><defs></defs></g><g><g transform="matrix(0.5,0,0,-0.5,0,0)"><path d="M1034 0L158 0L158 1465L429 1465L429 216L1042 216L1034 0ZM1683 178Q1816 178 1883 275Q1950 372 1950 553Q1950 736 1883 832Q1816 928 1681 928Q1548 928 1480 831Q1413 735 1413 552Q1413 372 1481 275Q1549 178 1683 178ZM1676 -21Q1432 -21 1292 137Q1152 295 1152 553Q1152 819 1292 972Q1432 1126 1687 1126Q1933 1126 2072 969Q2212 813 2212 553Q2212 290 2071 134Q1930 -21 1676 -21ZM2777 -20Q2534 -20 2388 63L2415 260Q2481 224 2583 195Q2685 167 2769 167Q2856 167 2904 199Q2953 232 2954 295Q2954 352 2908 385Q2863 418 2735 467Q2691 483 2678 488Q2526 547 2459 619Q2392 692 2392 816Q2392 966 2500 1046Q2609 1126 2803 1126Q3013 1126 3172 1047L3107 866Q2950 939 2808 939Q2729 939 2684 912Q2640 886 2640 832Q2640 781 2683 752Q2726 724 2851 678Q2855 677 2877 669Q2899 661 2911 656Q3062 601 3133 524Q3204 448 3204 325Q3203 160 3092 70Q2981 -20 2777 -20ZM3850 -15Q3738 -15 3663 11Q3589 38 3547 95Q3505 152 3487 229Q3470 307 3470 421L3470 940L3290 940L3300 1082L3488 1099L3572 1397L3732 1398L3732 1099L4005 1099L4005 940L3732 940L3732 416Q3732 291 3768 238Q3804 185 3901 185Q3958 185 4023 195L4030 7Q4028 7 4005 2Q3983 -2 3962 -6Q3942 -9 3910 -12Q3878 -15 3850 -15Z" fill="#343333" style=""></path></g></g><g transform="matrix(1,0,0,1,29,1078.2)"><g transform="matrix(0.5,0,0,-0.5,0,0)"><path d="M797 -21Q476 -21 288 181Q100 383 100 739Q100 1077 296 1281Q493 1486 811 1486Q1068 1486 1246 1367L1161 1162Q990 1267 817 1267Q615 1267 497 1121Q380 976 380 731Q380 477 493 338Q607 199 817 199Q1001 199 1182 291L1218 79Q1050 -21 797 -21ZM1819 -15Q1706 -15 1631 11Q1557 38 1514 96Q1471 154 1454 234Q1437 314 1437 433L1437 1504L1699 1521L1699 438Q1699 290 1734 237Q1769 185 1870 185Q1920 185 1997 196L2004 9Q2003 9 1979 4Q1956 -1 1934 -5Q1913 -8 1880 -12Q1847 -15 1819 -15ZM2613 178Q2746 178 2813 275Q2880 372 2880 553Q2880 736 2813 832Q2746 928 2611 928Q2478 928 2410 831Q2343 735 2343 552Q2343 372 2411 275Q2479 178 2613 178ZM2606 -21Q2362 -21 2222 137Q2082 295 2082 553Q2082 819 2222 972Q2362 1126 2617 1126Q2863 1126 3002 969Q3142 813 3142 553Q3142 290 3001 134Q2860 -21 2606 -21ZM3837 -21Q3585 -21 3444 129Q3304 279 3304 558Q3304 828 3451 977Q3599 1126 3840 1126Q4033 1126 4166 1043L4104 856Q3968 927 3851 927Q3718 927 3641 832Q3565 737 3565 555Q3565 371 3640 275Q3716 179 3854 179Q3998 179 4131 264L4156 65Q4087 19 4013 -1Q3939 -21 3837 -21ZM4626 0L4364 0L4364 1504L4626 1521L4626 846L4620 624Q4621 625 4640 644Q4660 663 4662 665Q4717 730 4781 799Q4846 868 4944 968Q5043 1068 5073 1099L5385 1099L4933 631L5414 0L5097 0L4735 499L4626 413L4626 0Z" fill="#343333" style=""></path></g></g></g></svg>